<svg xmlns="http://www.w3.org/2000/svg" viewBox="0 0 346.42 110.78"><defs><style>.cls-1{fill:#46463c;}.cls-2{fill:#cad223;}</style></defs><title>Asset 1</title><g id="Layer_2" data-name="Layer 2"><g id="Layer_1-2" data-name="Layer 1"><path class="cls-1" d="M0,5.9V.58H.86V5.8c0,1.37.59,2.71,2.31,2.71S5.49,7.17,5.49,5.8V.58h.86V5.9c0,1.42-.64,3.38-3.18,3.38S0,7.32,0,5.9Z"/><path class="cls-1" d="M9.25,3.46c0,.3,0,.72,0,1h0a2.19,2.19,0,0,1,1.92-1.1,2,2,0,0,1,2.13,2.31V9.07h-.82V6c0-1.18-.35-2-1.52-2-.86,0-1.7.7-1.7,2.2V9.07H8.52V4.69c0-.3,0-.85,0-1.23Z"/><path class="cls-1" d="M18,4.14H16.44V7.41c0,.84.35,1,.84,1A1.68,1.68,0,0,0,18,8.26L18,9a2.62,2.62,0,0,1-1,.17,1.34,1.34,0,0,1-1.44-1.5V4.14H14.46V3.46h1.16V1.87h.82V3.46H18Z"/><path class="cls-1" d="M19.71,1.87a.58.58,0,0,1-.58-.58.58.58,0,1,1,1.15,0A.58.58,0,0,1,19.71,1.87Zm.41,7.2h-.82V3.46h.82Z"/><path class="cls-1" d="M23.13,9.07h-.82V0h.82Z"/><path class="cls-1" d="M30.85,4.14H29.27V7.41c0,.84.35,1,.84,1a1.68,1.68,0,0,0,.71-.18l0,.71a2.62,2.62,0,0,1-1,.17,1.34,1.34,0,0,1-1.44-1.5V4.14H27.29V3.46h1.16V1.87h.82V3.46h1.58Z"/><path class="cls-1" d="M33,4.38a2.09,2.09,0,0,1,1.88-1.07A2,2,0,0,1,37,5.63V9.07h-.82V6c0-1.18-.35-2-1.52-2-.86,0-1.7.7-1.7,2.2V9.07h-.82V0H33V4.38Z"/><path class="cls-1" d="M44.22,6.48H39.56a2,2,0,0,0,2.05,2,2.13,2.13,0,0,0,1.8-1L44,8a2.93,2.93,0,0,1-2.41,1.19,2.85,2.85,0,0,1-2.9-3,2.83,2.83,0,0,1,2.83-3,2.57,2.57,0,0,1,2.69,2.78C44.23,6.2,44.23,6.33,44.22,6.48Zm-.82-.65A1.77,1.77,0,0,0,41.54,4a2,2,0,0,0-2,1.83Z"/><path class="cls-1" d="M46.71,3.46c0,.3,0,.72,0,1h0a2.19,2.19,0,0,1,1.92-1.1,2,2,0,0,1,2.13,2.31V9.07H50V6c0-1.18-.35-2-1.52-2-.86,0-1.7.7-1.7,2.2V9.07H46V4.69c0-.3,0-.85,0-1.23Z"/><path class="cls-1" d="M53.1,10.75h-.68l.8-2.82h.85Z"/><path class="cls-1" d="M60.65,8.19h0l1.74-4.74h.89L60.5,10.52c-.34.86-.79,1.43-1.76,1.43a3.78,3.78,0,0,1-.73-.07l.08-.74a1.92,1.92,0,0,0,.6.1c.55,0,.84-.36,1.08-1l.46-1.18-2.4-5.6h.91Z"/><path class="cls-1" d="M67.15,9.21a2.88,2.88,0,0,1-3-3,3,3,0,0,1,6,0A2.88,2.88,0,0,1,67.15,9.21Zm0-5.22A2.12,2.12,0,0,0,65,6.26a2.13,2.13,0,1,0,4.26,0A2.12,2.12,0,0,0,67.15,4Z"/><path class="cls-1" d="M76,9.07c0-.3,0-.72,0-1h0A2.19,2.19,0,0,1,74,9.21,2,2,0,0,1,71.85,6.9V3.46h.82V6.56c0,1.18.35,2,1.52,2,.86,0,1.7-.7,1.7-2.19V3.46h.82V7.83c0,.3,0,.85,0,1.24Z"/><path class="cls-1" d="M85.92,4.74A1.71,1.71,0,0,0,84.48,4a2.12,2.12,0,0,0-2.15,2.27,2.1,2.1,0,0,0,2.13,2.25A1.81,1.81,0,0,0,86,7.78l.61.46a2.61,2.61,0,0,1-2.13,1,2.85,2.85,0,0,1-3-3,2.85,2.85,0,0,1,3-3,2.64,2.64,0,0,1,2.09,1Z"/><path class="cls-1" d="M91.41,5.45A1.31,1.31,0,0,0,89.91,4a2.38,2.38,0,0,0-1.67.66l-.46-.54A3.15,3.15,0,0,1,90,3.31a2,2,0,0,1,2.18,2V7.81a7.61,7.61,0,0,0,.1,1.26h-.73a5.63,5.63,0,0,1-.08-.91h0a2.26,2.26,0,0,1-2,1.05,1.76,1.76,0,0,1-1.94-1.7c0-1.73,1.91-1.88,4-1.88Zm-.24.82c-1.33,0-2.88.14-2.88,1.21,0,.8.68,1.07,1.32,1.07a1.75,1.75,0,0,0,1.8-1.86V6.26Z"/><path class="cls-1" d="M95,3.46c0,.3,0,.72,0,1h0A2.19,2.19,0,0,1,97,3.31a2,2,0,0,1,2.13,2.31V9.07h-.82V6c0-1.18-.35-2-1.52-2-.86,0-1.7.7-1.7,2.2V9.07h-.82V4.69c0-.3,0-.85,0-1.23Z"/><path class="cls-1" d="M108.33,9.07c0-.3,0-.72,0-1h0a2.19,2.19,0,0,1-1.92,1.1,2,2,0,0,1-2.13-2.31V3.46H105V6.56c0,1.18.35,2,1.52,2,.86,0,1.7-.7,1.7-2.19V3.46h.82V7.83c0,.3,0,.85,0,1.24Z"/><path class="cls-1" d="M114.21,4.79A1.52,1.52,0,0,0,112.83,4c-.59,0-1.19.25-1.19.88s.42.77,1.34,1c1.32.28,1.94.77,1.94,1.64,0,1.28-1.08,1.74-2.11,1.74a2.62,2.62,0,0,1-2.22-1.09l.65-.48a1.86,1.86,0,0,0,1.56.87c.7,0,1.32-.25,1.32-1s-.59-.83-1.65-1.08c-.66-.16-1.61-.44-1.61-1.51s1-1.63,2-1.63a2.29,2.29,0,0,1,2,1Z"/><path class="cls-1" d="M121.65,6.48H117a2,2,0,0,0,2.05,2,2.13,2.13,0,0,0,1.8-1l.61.48A2.93,2.93,0,0,1,119,9.21a2.85,2.85,0,0,1-2.9-3,2.83,2.83,0,0,1,2.83-3,2.57,2.57,0,0,1,2.69,2.78C121.66,6.2,121.66,6.33,121.65,6.48Zm-.82-.65A1.77,1.77,0,0,0,119,4a2,2,0,0,0-2,1.83Z"/><path class="cls-1" d="M129,9.21a2.88,2.88,0,0,1-3-3,3,3,0,0,1,6,0A2.88,2.88,0,0,1,129,9.21ZM129,4a2.12,2.12,0,0,0-2.12,2.27,2.13,2.13,0,1,0,4.26,0A2.12,2.12,0,0,0,129,4Z"/><path class="cls-1" d="M137.83,9.07c0-.3,0-.72,0-1h0a2.19,2.19,0,0,1-1.92,1.1A2,2,0,0,1,133.7,6.9V3.46h.82V6.56c0,1.18.35,2,1.52,2,.86,0,1.7-.7,1.7-2.19V3.46h.82V7.83c0,.3,0,.85,0,1.24Z"/><path class="cls-1" d="M140.67,3.46h.78c0,.3,0,.72,0,1h0a2,2,0,0,1,1.8-1.1,1.88,1.88,0,0,1,.54.06l-.11.77a2.13,2.13,0,0,0-.58-.07c-.86,0-1.64.62-1.64,2.12V9.07h-.82V4.69C140.72,4.39,140.71,3.84,140.67,3.46Z"/><path class="cls-1" d="M149,9.07h-.86V.58h5.12v.77H149v3h4V5h-4Z"/><path class="cls-1" d="M157.75,5.45A1.31,1.31,0,0,0,156.25,4a2.38,2.38,0,0,0-1.67.66l-.46-.54a3.14,3.14,0,0,1,2.21-.8,2,2,0,0,1,2.18,2V7.81a7.62,7.62,0,0,0,.1,1.26h-.73a5.62,5.62,0,0,1-.08-.91h0a2.26,2.26,0,0,1-2,1.05,1.76,1.76,0,0,1-1.94-1.7c0-1.73,1.91-1.88,4-1.88Zm-.24.82c-1.33,0-2.88.14-2.88,1.21,0,.8.68,1.07,1.32,1.07a1.75,1.75,0,0,0,1.8-1.86V6.26Z"/><path class="cls-1" d="M163.27,3.31A1.74,1.74,0,0,1,165,4.5a2.08,2.08,0,0,1,2-1.19,2,2,0,0,1,2.13,2.31V9.07h-.82V6c0-1.18-.4-2-1.45-2s-1.59,1-1.59,2.09v3h-.82V5.79c0-1.09-.26-1.8-1.35-1.8-.78,0-1.63.7-1.63,2.2V9.07h-.82V4.69c0-.3,0-.85,0-1.23h.78c0,.3,0,.72,0,1h0A2.07,2.07,0,0,1,163.27,3.31Z"/><path class="cls-1" d="M173.79,9.21a2.88,2.88,0,0,1-3-3,3,3,0,0,1,6,0A2.88,2.88,0,0,1,173.79,9.21Zm0-5.22a2.12,2.12,0,0,0-2.12,2.27,2.13,2.13,0,1,0,4.26,0A2.12,2.12,0,0,0,173.79,4Z"/><path class="cls-1" d="M182.62,9.07c0-.3,0-.72,0-1h0a2.19,2.19,0,0,1-1.92,1.1A2,2,0,0,1,178.5,6.9V3.46h.82V6.56c0,1.18.35,2,1.52,2,.86,0,1.7-.7,1.7-2.19V3.46h.82V7.83c0,.3,0,.85,0,1.24Z"/><path class="cls-1" d="M188.5,4.79A1.52,1.52,0,0,0,187.12,4c-.59,0-1.19.25-1.19.88s.42.77,1.34,1c1.32.28,1.94.77,1.94,1.64,0,1.28-1.08,1.74-2.11,1.74a2.62,2.62,0,0,1-2.22-1.09l.65-.48a1.86,1.86,0,0,0,1.56.87c.7,0,1.32-.25,1.32-1s-.59-.83-1.65-1.08c-.66-.16-1.61-.44-1.61-1.51s1-1.63,2-1.63a2.29,2.29,0,0,1,2,1Z"/><path class="cls-1" d="M202.59,9.07h-4.86a4.2,4.2,0,0,1-4.29-4.35,4.29,4.29,0,1,1,8.58,0,4,4,0,0,1-2,3.56v0h2.57Zm-4.86-.75a3.42,3.42,0,0,0,3.39-3.6,3.39,3.39,0,1,0-6.78,0A3.39,3.39,0,0,0,197.73,8.31Z"/><path class="cls-1" d="M208,9.07c0-.3,0-.72,0-1h0A2.19,2.19,0,0,1,206,9.21a2,2,0,0,1-2.13-2.31V3.46h.82V6.56c0,1.18.35,2,1.52,2,.86,0,1.7-.7,1.7-2.19V3.46h.82V7.83c0,.3,0,.85,0,1.24Z"/><path class="cls-1" d="M213.51,9.21a2.88,2.88,0,0,1-3-3,3,3,0,0,1,6,0A2.88,2.88,0,0,1,213.51,9.21Zm0-5.22a2.12,2.12,0,0,0-2.12,2.27,2.13,2.13,0,1,0,4.26,0A2.12,2.12,0,0,0,213.51,4Z"/><path class="cls-1" d="M220.8,4.14h-1.58V7.41c0,.84.35,1,.84,1a1.68,1.68,0,0,0,.71-.18l0,.71a2.63,2.63,0,0,1-1,.17,1.34,1.34,0,0,1-1.44-1.5V4.14h-1.16V3.46h1.16V1.87h.82V3.46h1.58Z"/><path class="cls-1" d="M227.17,6.48h-4.65a2,2,0,0,0,2.05,2,2.13,2.13,0,0,0,1.8-1L227,8a2.93,2.93,0,0,1-2.41,1.19,2.85,2.85,0,0,1-2.9-3,2.83,2.83,0,0,1,2.83-3,2.57,2.57,0,0,1,2.69,2.78C227.18,6.2,227.18,6.33,227.17,6.48Zm-.82-.65A1.77,1.77,0,0,0,224.49,4a2,2,0,0,0-2,1.83Z"/><path class="cls-1" d="M238.42,2.1a3.23,3.23,0,0,0-2.46-1,3.51,3.51,0,0,0-3.53,3.71A3.5,3.5,0,0,0,236,8.52,4.39,4.39,0,0,0,238.25,8V5.38h-2V4.63h2.84V8.46a6.14,6.14,0,0,1-3.17.83,4.3,4.3,0,0,1-4.43-4.46A4.32,4.32,0,0,1,236,.36,4.2,4.2,0,0,1,239,1.5Z"/><path class="cls-1" d="M246.38,6.48h-4.65a2,2,0,0,0,2.05,2,2.13,2.13,0,0,0,1.8-1l.61.48a2.93,2.93,0,0,1-2.41,1.19,2.85,2.85,0,0,1-2.9-3,2.83,2.83,0,0,1,2.83-3,2.57,2.57,0,0,1,2.69,2.78C246.39,6.2,246.39,6.33,246.38,6.48Zm-.82-.65A1.77,1.77,0,0,0,243.7,4a2,2,0,0,0-2,1.83Z"/><path class="cls-1" d="M248.88,3.46c0,.3,0,.72,0,1h0a2.19,2.19,0,0,1,1.92-1.1A2,2,0,0,1,253,5.63V9.07h-.82V6c0-1.18-.35-2-1.52-2-.86,0-1.7.7-1.7,2.2V9.07h-.82V4.69c0-.3,0-.85,0-1.23Z"/><path class="cls-1" d="M260.21,6.48h-4.65a2,2,0,0,0,2.05,2,2.13,2.13,0,0,0,1.8-1L260,8a2.93,2.93,0,0,1-2.41,1.19,2.85,2.85,0,0,1-2.9-3,2.83,2.83,0,0,1,2.83-3,2.57,2.57,0,0,1,2.69,2.78C260.23,6.2,260.23,6.33,260.21,6.48Zm-.82-.65A1.77,1.77,0,0,0,257.54,4a2,2,0,0,0-2,1.83Z"/><path class="cls-1" d="M261.93,3.46h.78c0,.3,0,.72,0,1h0a2,2,0,0,1,1.8-1.1,1.88,1.88,0,0,1,.54.06l-.11.77a2.12,2.12,0,0,0-.58-.07c-.86,0-1.64.62-1.64,2.12V9.07H262V4.69C262,4.39,262,3.84,261.93,3.46Z"/><path class="cls-1" d="M269.69,5.45A1.31,1.31,0,0,0,268.2,4a2.38,2.38,0,0,0-1.67.66l-.46-.54a3.14,3.14,0,0,1,2.21-.8,2,2,0,0,1,2.18,2V7.81a7.61,7.61,0,0,0,.1,1.26h-.73a5.61,5.61,0,0,1-.08-.91h0a2.26,2.26,0,0,1-2,1.05,1.76,1.76,0,0,1-1.94-1.7c0-1.73,1.91-1.88,4-1.88Zm-.24.82c-1.33,0-2.88.14-2.88,1.21,0,.8.68,1.07,1.32,1.07a1.75,1.75,0,0,0,1.8-1.86V6.26Z"/><path class="cls-1" d="M275,4.14h-1.58V7.41c0,.84.35,1,.84,1a1.68,1.68,0,0,0,.71-.18L275,9a2.63,2.63,0,0,1-1,.17,1.34,1.34,0,0,1-1.44-1.5V4.14h-1.16V3.46h1.16V1.87h.82V3.46H275Z"/><path class="cls-1" d="M278.83,9.21a2.88,2.88,0,0,1-3-3,3,3,0,0,1,6,0A2.88,2.88,0,0,1,278.83,9.21Zm0-5.22a2.12,2.12,0,0,0-2.12,2.27,2.13,2.13,0,1,0,4.26,0A2.12,2.12,0,0,0,278.83,4Z"/><path class="cls-1" d="M283.53,3.46h.78c0,.3,0,.72,0,1h0a2,2,0,0,1,1.8-1.1,1.88,1.88,0,0,1,.54.06l-.11.77a2.13,2.13,0,0,0-.58-.07c-.86,0-1.64.62-1.64,2.12V9.07h-.82V4.69C283.58,4.39,283.57,3.84,283.53,3.46Z"/><path class="cls-1" d="M287.8,9.14a.65.65,0,1,1,.65-.65A.64.64,0,0,1,287.8,9.14Z"/><path class="cls-1" d="M294.91,2.33V4.08h3.29V5.77h-3.29v3.3h-2V.58h5.59V2.33Z"/><path class="cls-1" d="M302.12,9.26a3.16,3.16,0,0,1-3.31-3.2,3.32,3.32,0,0,1,6.63,0A3.16,3.16,0,0,1,302.12,9.26Zm0-4.73a1.42,1.42,0,0,0-1.4,1.52,1.42,1.42,0,1,0,2.83,0A1.44,1.44,0,0,0,302.12,4.53Z"/><path class="cls-1" d="M310.57,4.7a2,2,0,0,0-.5-.06A1.35,1.35,0,0,0,308.66,6V9.07h-2v-6h1.89V4h0a1.8,1.8,0,0,1,1.62-1,1.42,1.42,0,0,1,.42,0Z"/><path class="cls-1" d="M316.58,2.33V4.08h3.29V5.77h-3.29v3.3h-2V.58h5.59V2.33Z"/><path class="cls-1" d="M326,9.07,324.17,5.7h-.7V9.07h-2V.58h3.24c1.63,0,3.25.62,3.25,2.57a2.31,2.31,0,0,1-1.76,2.29l2.22,3.63Zm-1.45-6.84h-1.09v2h1c.66,0,1.49-.17,1.49-1S325.17,2.23,324.56,2.23Z"/><path class="cls-1" d="M329.42,9.07V.58h5.71V2.31H331.4v1.6h3.53V5.55H331.4V7.32h3.95V9.07Z"/><path class="cls-1" d="M336.7,9.07V.58h5.71V2.31h-3.73v1.6h3.53V5.55h-3.53V7.32h3.95V9.07Z"/><path class="cls-1" d="M345.25,9.19A1.13,1.13,0,1,1,346.42,8,1.15,1.15,0,0,1,345.25,9.19Zm-1-3V.58h2V6.22Z"/><circle class="cls-1" cx="173.16" cy="75.61" r="35.17"/><path class="cls-2" d="M147.07,75.85a26.08,26.08,0,0,1,49.74-10.91l.51-.22a26.65,26.65,0,0,0-50.81,11.13c0,.19,0,.43,0,.43h.56S147.07,76,147.07,75.85Z"/><path class="cls-2" d="M199.25,76.28c-.3,15-11.88,25.53-26.08,25.53s-25.78-10.53-26.08-25.53h-.56a26.65,26.65,0,0,0,53.28,0Z"/><polygon class="cls-2" points="197.21 65.19 190.01 62.92 190.18 62.39 196.88 64.49 199.28 58.57 199.8 58.78 197.21 65.19"/><path class="cls-2" d="M157.52,71H163v.41H158v5H163v.41H158v5.46h-.46Z"/><path class="cls-2" d="M177,82.46c-.4,0-.73-.11-1-.17a6.57,6.57,0,0,1-2.23-1,6,6,0,0,1-3.47,1.12,5.82,5.82,0,1,1,5.79-5.82,5.84,5.84,0,0,1-1.95,4.41A6.72,6.72,0,0,0,177,82Zm-6.78-11.23a5.31,5.31,0,0,0-5.36,5.41,5.08,5.08,0,0,0,.32,1.88,7.77,7.77,0,0,1,2.61-.46,7.07,7.07,0,0,1,3.34.82,19.26,19.26,0,0,1,2.63,1.88,5.45,5.45,0,0,0-3.53-9.54Zm.09,10.82a5.31,5.31,0,0,0,3.08-1c-.29-.2-1.84-1.38-1.85-1.4a6.68,6.68,0,0,0-3.81-1.17,6,6,0,0,0-2.37.49,5.32,5.32,0,0,0,4.94,3.08Z"/><path class="cls-2" d="M188,73.51a5.9,5.9,0,0,0-1.58-1.44,5.52,5.52,0,0,0-3-.84,5.41,5.41,0,0,0,0,10.82,5.78,5.78,0,0,0,3.63-1.28,5,5,0,0,0,1.81-2.86h-6.7v-.41h7.25a4.87,4.87,0,0,1-.49,1.66,6.07,6.07,0,0,1-5.5,3.3,5.82,5.82,0,1,1,0-11.64,6,6,0,0,1,5.11,2.69Z"/></g></g></svg>