<svg xmlns="http://www.w3.org/2000/svg" viewBox="0 0 652.16 165.36"><defs><style>.cls-1{fill:#46463c;}</style></defs><title>Asset 3</title><g id="Layer_2" data-name="Layer 2"><g id="Layer_1-2" data-name="Layer 1"><path class="cls-1" d="M133.27,6a10.45,10.45,0,0,1,6.26-2.22c11.37,0,16.66,11.15,16.66,23,0,13.48-6.88,27.92-19.56,27.92s-17.91-11.83-17.91-23.89c0-12.4,5.52-25,14-25A.87.87,0,0,1,133.27,6ZM137,51.58c8.08,0,12.17-12.23,12.17-23.94,0-10.81-3.47-21.16-10.63-21.16-4.83,0-7.17,7.73-8.76,13.36a4.48,4.48,0,0,1-.8.11,1.76,1.76,0,0,1-1.82-1.37A54.83,54.83,0,0,0,126,30.08C126,40.66,128.95,51.58,137,51.58Z"/><path class="cls-1" d="M184.28,36.62h-.57c-.57,5.18-3.3,15.58-8.47,15.58-2.39,0-4.38-3.58-4.61-10.18-1.65,4.49-4.15,10.86-7.45,10.86-3.13,0-4.09-4.44-4.09-9.5a57.07,57.07,0,0,1,1.82-13.76s.23-.74.68-.74a14.62,14.62,0,0,0,3.47-.4c.68,0,.68.46.68.46a62.32,62.32,0,0,0-2.56,17.52c0,2.22.4,3.13,1.08,3.13,1.71,0,4.95-6,6.37-10.41a57.46,57.46,0,0,1,1.14-8.87c.51.28,3.53.74,3.53,1.76,0,1.71-1,7.73-1,12.23,0,2.84.46,5.06,1.76,5.06,3.7,0,5.29-7.11,6-13.36-1.65-1.14-2.39-3.47-2.39-5.63,0-2.33.91-4.44,2.67-4.44s2.1,1.19,2.1,2.62c0,1.19-.28,2.62-.28,3.7s.11,1.36.51,1.36a3.15,3.15,0,0,0,1.25-.57c2-1.31,5-4.49,5.46-4.49.74,0,1.88,1.48,1.88,2.27a1.86,1.86,0,0,1-.17.74s-1,2.67-1.42,3.64A23.28,23.28,0,0,0,189.79,44c0,4.66,1.25,7.62,2.73,7.62,1,0,2-1.31,3-4.21a1.44,1.44,0,0,1,.8-1.14.88.88,0,0,1,.34-.17c.11,0,.17.11.17.23a1.16,1.16,0,0,1-.06.28c-.23,4.72-3.18,7.68-5.91,7.68-2.45,0-4.72-2.33-4.72-7.9a45.24,45.24,0,0,1,1.42-10.46A8.27,8.27,0,0,1,184.28,36.62Z"/><path class="cls-1" d="M216.86,26.73c2.28,0,4,1.76,4.27,5.63a5,5,0,0,1,.11.91,3.24,3.24,0,0,1-3.41,3.19c-1.19,0-1.65-.46-1.65-.74a.15.15,0,0,1,.17-.17c.46-.06,1.48-2.22,1.48-3.53,0-.46-.11-.8-.4-.91-3.07.23-6.37,7-6.37,12.34,0,4.32,2.39,6.6,4.61,6.6,2,0,4-1.88,4-5.63a13,13,0,0,0-.68-3.92c0-.06,0-.34.68-.34,1.65,0,2.9,2.5,2.9,5.23,0,4.89-3.13,7.34-6.6,7.34-4.15,0-8.76-3.53-8.76-10.46C207.2,35.09,211.4,26.73,216.86,26.73Z"/><path class="cls-1" d="M241.77,33.72l2-.11C244.22,30,245,22.24,246,5.4c0-.28,0-.57.11-.57.29,0,.46,0,.63.17.46.68,2.1,3.07,2.67,3.7A1.9,1.9,0,0,1,249.9,10a2.56,2.56,0,0,1-.06.63c-1.14,7.9-2.1,15.58-3,22.75l9.89-.8c.34,0,.51-.17.51-.46,0,0,.51-4,2.1-30,0-.28,0-.57.11-.57.28,0,.46,0,.63.17.46.68,2.1,3.07,2.67,3.7a1.89,1.89,0,0,1,.51,1.31,2.56,2.56,0,0,1-.06.63c-1.25,8.76-2.27,17.29-3.18,25l4.83-.4c1.54,0,3.13,1.71,4.21,3.3.29.4,1.25.23,1.25.74a.51.51,0,0,1-.34.51c-.51.28-5.06.4-10,.46,3,5.86,4.72,15.87,4.72,24.34s-1.65,15.24-5.4,15.24c-4.32,0-5.63-4.32-5.63-10.52,0-8.3,2.33-20,2.84-29.06h-1.19c-3.58,0-6.65-.06-7.51-.11-.46,0-.51.51-.51.51,3.07,5.06,4.72,14.79,4.72,23.71,0,9.9-2,18.77-6.14,18.77s-5.57-4.49-5.57-10.86c0-9.33,2.73-22.58,3-32A18.94,18.94,0,0,1,239,35.94c.06.68.11,1.25.11,1.93,0,6.43-3.41,13.65-8.36,13.65s-7.16-4.61-7.16-9.84c0-6.94,3.7-15.07,9.1-15.07,4.38,0,4.72,3.07,4.72,4.15v.4a6.35,6.35,0,0,0-2.56-.57c-4.95,0-7.34,7-7.34,12.57,0,3.7,1,6.71,3.07,6.71,2.67,0,4.55-5.52,4.55-10.18,0-2.73-.62-5.12-2.1-6a31.37,31.37,0,0,1,3.18-1.42A11.45,11.45,0,0,0,241.77,33.72ZM246,40.83c-1.54,14.27-2.45,25.31-2.45,29,0,4.83.4,6.88.91,6.88,1.14,0,3.3-12.62,3.3-23.43C247.8,48.28,247.29,43.62,246,40.83Zm13.25-1.54C257.81,52.72,257,63,257,66.54c0,4.83.4,6.88.91,6.88,1.08,0,3-11.32,3-21.55C260.88,47,260.42,42.31,259.29,39.3Z"/><path class="cls-1" d="M268.22,43.51l-.17-.28c-.11-.23-.17-.34-.46-.34a1.48,1.48,0,0,0-.57-.28s0-.06.11-.06c.4,0,1.54.17,2.39.17a1.6,1.6,0,0,0,.46-.06,12.76,12.76,0,0,1-.11-2.1c0-6.65,3.47-13.59,8.76-13.59,2.56,0,4,1.88,4,4.49,0,3.41-2.45,8-8.13,11.43.68,3.81,2.62,7,6.25,7A9.9,9.9,0,0,0,287,47.54a17.12,17.12,0,0,1-1.76-7.85c0-6.43,3-12.85,8.36-12.85,2.5,0,3.53,1.76,3.53,4.38,0,4-2.56,10.12-6.43,14.67.85,2.27,2.22,3.81,4.09,3.81a5.66,5.66,0,0,0,4-2.84c.63-.17.74-.91.91-.91s.23.34.23.51c0,3-1.76,5.8-5.29,5.8a8.17,8.17,0,0,1-6.88-3.47,13,13,0,0,1-8.19,3.47c-5.46,0-8.42-3.53-9.38-8h-.11a3.71,3.71,0,0,1-1.42-.17A.7.7,0,0,1,268.22,43.51Zm10.24-13.25c-2.5,0-4.21,4.66-4.21,9.44a15.52,15.52,0,0,0,.06,1.65c2.9-1.82,5.4-6.77,5.4-9.38C279.7,30.94,279.36,30.25,278.45,30.25Zm14.62-.8c-2.27,0-3.53,4.38-3.53,9.1a24.84,24.84,0,0,0,.57,5.52,24.35,24.35,0,0,0,4-12.06C294.15,30.48,293.75,29.46,293.07,29.46Z"/><path class="cls-1" d="M323,28.61c2.45,0,3.13,1.31,3.13,3.64,0,6.37-.06,9.55-.46,11.6,1.82-4,4.49-13.76,7.79-16.89a.75.75,0,0,1,.46-.17c.62,0,2.62,1.31,2.62,2a.52.52,0,0,1-.06.28c-1.42,3.18-2,8.25-2,11.66s1,6.82,2.73,6.82a3.8,3.8,0,0,0,2.56-1.48A.58.58,0,0,1,340,46a.15.15,0,0,1,.17.17,5,5,0,0,1-4.66,4.61c-4.49,0-5.12-6.31-5.12-11,0-1.88.11-3.47.11-4.27-1.65,2.73-3.58,11.54-4.83,15.3,0,.4-.4.57-.85.57-1.42,0-3.07,0-3.07-.8v-.06c.23-2,.57-8.08.57-12.51,0-2.9-.17-5.12-.51-5.12-1.42,0-3.75,7.11-4.95,17a1.61,1.61,0,0,1-1.76,1.76,2.78,2.78,0,0,1-2.84-2.39c.17-1.25,1.82-10.24,1.82-15.18,0-1.93-.28-3.24-1-3.24-.91,0-2.39,1.59-3.7,4a1.39,1.39,0,0,1-.4.06c-.46,0-1.08-.17-1.08-.91,1.59-3,3.81-5.63,6.82-5.63,2.28,0,3,2.5,3,5.74a47.43,47.43,0,0,1-.91,8C318.71,34.46,320.93,28.61,323,28.61Z"/><path class="cls-1" d="M353.46,31.9c1,.28,2.45.74,2.45,1.42,0,1.65-.8,6.82-.8,10.86,0,2.9.4,5.18,1.82,5.18a4.16,4.16,0,0,0,3.36-2.5c.63-.17.74-.91.91-.91s.23.34.23.51c0,3-2.67,5.74-5.29,5.74-2.22,0-4.38-1.93-4.95-7.05-1.54,4-3.7,7.05-5.92,7.05-3.92,0-5.63-4.15-5.63-9,0-7.11,3.53-15.81,8.93-15.81C351.58,27.35,353.06,29.29,353.46,31.9Zm-1.93,1.71c-1-1.25-1.88-1.82-2.73-1.82-3.53,0-5.86,9.16-5.86,13.65,0,2.33.57,4,1.71,4C349.31,49.42,351,38.1,351.53,33.61Z"/><path class="cls-1" d="M370.18,26.73c2.27,0,4,1.76,4.26,5.63a5,5,0,0,1,.11.91,3.24,3.24,0,0,1-3.41,3.19c-1.19,0-1.65-.46-1.65-.74a.15.15,0,0,1,.17-.17c.45-.06,1.48-2.22,1.48-3.53,0-.46-.11-.8-.4-.91-3.07.23-6.37,7-6.37,12.34,0,4.32,2.39,6.6,4.61,6.6,2,0,4-1.88,4-5.63a13,13,0,0,0-.68-3.92c0-.06,0-.34.68-.34,1.65,0,2.9,2.5,2.9,5.23,0,4.89-3.13,7.34-6.6,7.34-4.15,0-8.76-3.53-8.76-10.46C360.51,35.09,364.72,26.73,370.18,26.73Z"/><path class="cls-1" d="M382.07,39.52c.11,0,.17-.06.23-.17.74-2,5-10.35,6.94-10.35a1.59,1.59,0,0,1,1,.51c1.14.06,2.22.28,2.22,1.48a88.76,88.76,0,0,0-1,12.34c0,2.84.28,6.14,1.88,6.14,1.88,0,3.53-2.73,4-4.27a.3.3,0,0,1,.28-.23c.46,0,.57.57.57.85a7.78,7.78,0,0,1-3.13,5.63,4.71,4.71,0,0,1-2.79,1c-5,0-5.29-7.9-5.29-11.26,0-2.67.17-5.23.29-6.82,0-.23-.06-1-.23-1-.34,0-3,5.12-3.53,6.37a25.53,25.53,0,0,0-1.93,9.5c0,2.1.06,3.81.06,3.81,0,.57-.11,1-.4,1a.76.76,0,0,1-.4-.17c-1-.74-3-1.76-3.53-2.27.11-2,.85-9.84,1.48-18.25h-.23a.74.74,0,0,1-.46-.11c-.51-.23-.23-.57-.74-.8-.4,0-.57-.11-.57-.17s1.25-.28,2.1-.57l.17-2c1-14,5.4-29.63,8.64-29.63,2.79,0,4,3,4,7.11,0,7.45-3.87,18.71-9.38,23.94-.29,3.41-.51,6.65-.51,8.25C381.89,39.47,382,39.52,382.07,39.52Zm6.2-32.36c-1.93,0-4.72,11-5.69,21.55C386.79,23.54,389,13.93,389,9.5,389,8.08,388.72,7.17,388.26,7.17Z"/><path class="cls-1" d="M397.42,43.33c0-5.69,1.25-13.82,2.28-13.82a14.62,14.62,0,0,0,3.47-.4c.68,0,.68.46.68.46-1.48,8.25-2.27,11.54-2.27,17.23,0,1.88.45,2.62,1,2.62,4.15,0,6.08-11,7.73-16,.91-2.67,1.71-4.78,2.45-4.78,1,0,1.76-.63,2.22-.63s.51,2.56.51,4.89c0,4.49-.06,6.77-.06,9,1.82-4,3.92-10.63,7.22-13.76a.75.75,0,0,1,.45-.17c.63,0,2.62,1.31,2.62,2a.51.51,0,0,1-.06.28c-1.42,3.18-2,8.25-2,11.66,0,3,.74,6,1.93,6,.68,0,1.54-1,2.45-3.47a.58.58,0,0,1,.23-.06.15.15,0,0,1,.17.17c0,2.33-1.54,5.8-3.81,5.8-4.95,0-5.29-9.72-5.29-12.57-2.73,3-4.09,10.75-5.35,14.5-.06.4-.4.57-.85.57a4.19,4.19,0,0,1-2.67-1.54c0-.11.4-3.81.74-8.42.17-2.45.57-6.77.57-9.5,0-.51-.06-.8-.11-.8-1,0-3.07,19.68-10.12,19.68C398.39,52.21,397.42,48.11,397.42,43.33Zm9.33-26.56c0,2.16-1.65,4.89-3.64,4.89-1.82,0-2.62-1.37-2.62-2.9,0-2.1,1.48-4.61,3.75-4.61A2.36,2.36,0,0,1,406.75,16.78Z"/><path class="cls-1" d="M441,43.33a10.22,10.22,0,0,0-.51-3.07c0-.06,0-.34.68-.34,2.1,0,2.56,2.33,2.56,4.32,0,4-3.13,8-7.34,8-5.86,0-8.3-5.18-8.3-10.86,0-6.88,3.58-14.44,9.1-14.44,2.56,0,4,1.88,4,4.49,0,3.53-2.62,8.3-8.59,11.72.34,4.72,2,6.54,3.92,6.54C438.71,49.7,441,47,441,43.33Zm-4-13.08c-2.5,0-4.38,5.46-4.49,10.52,2.27-1.54,5.35-6.65,5.35-9.44C437.85,30.82,437.63,30.25,437,30.25Z"/><path class="cls-1" d="M456.79,4.78c0-.17.17-.23.34-.23a1.05,1.05,0,0,1,.4.11c1.48,1.48,3.64,1.82,3.64,4-.57,8.25-1.48,24.85-2.1,35.09.23,3.81,2.16,6,4.21,6,3.53,0,5.06-4.61,5.06-9.1a20.43,20.43,0,0,0-.28-3.3c-2.73-1.14-5.63-4.15-5.63-7.39,0-1.08.91-1.65,2.16-1.65,2.45,0,6.31,2.22,7.17,6.94a5.84,5.84,0,0,0,2.56-1,8.11,8.11,0,0,1-1.25-4.49c0-2.33.91-4.44,2.67-4.44s2.56,1.65,2.56,3.81a8.51,8.51,0,0,1-1.48,4.95,2.36,2.36,0,0,0,.91.17c3.24,0,6.48-5.74,7.05-5.74.74,0,1.88,1.48,1.88,2.27a1.86,1.86,0,0,1-.17.74,24.57,24.57,0,0,0-4.21,12.8c0,2.27.63,3.87,2,3.87,1.14,0,2.5-1.42,3.75-4.72.17-.4.06-.63.8-1.14a.87.87,0,0,1,.34-.17c.11,0,.17.11.17.23a1.16,1.16,0,0,1-.06.28c-.4,3.36-2.56,9.5-6.71,9.5-3,0-4.09-2.73-4.09-6.14A26.86,26.86,0,0,1,481,35.37a7.86,7.86,0,0,1-3.36.68,3.7,3.7,0,0,1-2-.51,9,9,0,0,1-3.7,2c-.11,6.71-3.13,14.39-8,14.39a6.09,6.09,0,0,1-5.12-3.3l-.23,3.47c0,.4-.34.51-.8.51a9.65,9.65,0,0,1-3.24-1.76,1.76,1.76,0,0,1,.06-.51c1.82-10.46,2.22-29.12,2.22-45.15Z"/><path class="cls-1" d="M503.71,36.57l-.51.23a6.92,6.92,0,0,1,.06,1.08c0,6.43-3.41,13.65-8.36,13.65s-7.17-4.61-7.17-9.84c0-6.94,3.7-15.07,9.1-15.07,4.38,0,4.72,3.07,4.72,4.15v.4A6.34,6.34,0,0,0,499,30.6c-4.95,0-7.34,7-7.34,12.57,0,3.7,1,6.71,3.07,6.71,2.67,0,4.55-5.52,4.55-10.18,0-2.73-.63-5.12-2.1-6a31.48,31.48,0,0,1,3.18-1.42,7.58,7.58,0,0,0,7.79-.23C509.73,17.35,512.58,0,517,0c2.62,0,3.87,2.9,3.87,7.11,0,7.22-3.64,18.31-10,24.79l-.51,5.35c3.35-6.43,6.88-9.5,9.72-9.5,1.82,0,2.73,1.25,2.73,3,0,3.18-3,8.08-9.16,10.58,1.59,8.3,6.26,13.31,11.94,13.31a11.87,11.87,0,0,0,6.09-1.82s.34-.28.51-.28v.06a7.91,7.91,0,0,1-.63,1.19c-3.41,1.93-1.48,6.88-8,6.88-5.17,0-10.8-8.87-12.11-17.57-.11,0-.34.51-.34.57a20.94,20.94,0,0,0-.46,5.4,37.26,37.26,0,0,0,.23,4c0,.57-.11,1-.4,1a.75.75,0,0,1-.4-.17c-1-.74-3-1.76-3.53-2.27.06-2.39.46-9.21,1.25-17.12A16.77,16.77,0,0,1,503.71,36.57Zm15.07-3.7c0-.57-.34-.91-1-.91-3,0-7.11,7.28-7.11,8.64C516.1,37.88,518.78,34.46,518.78,32.87Zm-7.68-3.41c4.66-5.52,7.28-15.35,7.28-19.9,0-1.48-.28-2.39-.85-2.39C514.8,7.17,512.63,16,511.1,29.46Z"/><path class="cls-1" d="M535.21,43.33a10.22,10.22,0,0,0-.51-3.07c0-.06,0-.34.68-.34,2.1,0,2.56,2.33,2.56,4.32,0,4-3.13,8-7.34,8-5.86,0-8.3-5.18-8.3-10.86,0-6.88,3.58-14.44,9.1-14.44,2.56,0,4,1.88,4,4.49,0,3.53-2.62,8.3-8.59,11.72.34,4.72,2,6.54,3.92,6.54C532.94,49.7,535.21,47,535.21,43.33Zm-4-13.08c-2.5,0-4.38,5.46-4.49,10.52,2.27-1.54,5.35-6.65,5.35-9.44C532.08,30.82,531.86,30.25,531.23,30.25Z"/><path class="cls-1" d="M548.92,47.26a3.85,3.85,0,0,1-3.58,3.87,3,3,0,0,1-3.07-3.18,3.34,3.34,0,0,1,3.18-3.58C548,44.36,548.92,45.72,548.92,47.26Z"/><path class="cls-1" d="M68.64,83.93c-14.9,3.53-26.33,39.41-27.18,56.24-.17,1.65-.4,2-1.59,2-2.79-.06-5.52-.17-5.52-3.64,0-5-.23-15.7-.23-23.83,0-2.9.06-5.52.11-7.39-3,8.81-4.61,21.72-6.2,31.22-.17,1.08-.4,2.79-.4,3.24,0,.23-.57.34-1.31.34-1.82,0-4.95-.74-4.95-2.62,0-4.09.34-11,.34-18.31C21.72,107.7,20.59,93,14.1,93,8.59,93,1.59,103,1.59,112.47a13.57,13.57,0,0,0,2.27,8.13c0,.17-.11.23-.28.23a.89.89,0,0,1-.46-.11A13.06,13.06,0,0,1,0,111.62c0-9.72,7.39-21.27,15.24-21.27,10.12,0,12.4,24.91,12.4,36.06,2.28-9.16,5.8-24.45,7.34-27.92a13.86,13.86,0,0,1,4-2.1,1.08,1.08,0,0,1,.46-.11c.23,0,.46.11.46.57,0,1.71-.8,15.92-.8,27.35,0,2.5,0,4.89.11,6.94,3.64-15.87,11.83-47.77,26.1-47.77A9.81,9.81,0,0,1,68.64,83.93Z"/><path class="cls-1" d="M80.19,97.92c0,6.54-2.62,22.12-7.91,32.53.91,5.29,2.5,7.62,4.44,7.62,1.59,0,3.41-1.76,5.18-4.83a89.26,89.26,0,0,1-.68-11.37c0-16.95,4-35.77,8.13-35.77,2.79,0,4,3.87,4,9.5,0,15.3-4,29-8.81,37.25,1,6.65,3.3,11.43,7.39,11.43,1,0,2.5-.17,3.87-3.53.23-.51.34-.68.46-.68s.17.23.17.4v.17c0,.11.34.23.34.23,0,2.56-2.33,7.45-5.46,7.45-4.72,0-7.51-5.06-8.93-12.23C80,139.15,77.57,141,75.41,141c-2.33,0-4.26-2-5.52-6.43a16.5,16.5,0,0,1-12.28,6.26c-4.61,0-8.93-2.73-10.35-10.18a2.78,2.78,0,0,1-.68-.06c-.34-.06-.11-.63-.74-1.31-.06-.06-.11-.11-.11-.17,0-.23.4-.51.68-.51l.85.17c.34-6.88,3.81-14,9.1-14,2.5,0,3.92,2.22,3.92,5.12,0,3.87-2.56,8.93-8.53,11.2.11,5.86,3.18,7.85,6.71,7.85,4.49,0,9.78-3.18,11-5.69a61.52,61.52,0,0,1-1.08-12.63c0-15.52,3.87-31.28,8.08-31.28C79.1,89.27,80.19,92.74,80.19,97.92ZM51.69,128.63a9.08,9.08,0,0,0,5.8-8.25c0-1.36-.46-2.39-1.31-2.39C53.63,118,51.81,123.56,51.69,128.63ZM65.4,94.84c1.36,0,2,1.48,2,3.75a22.28,22.28,0,0,1-3.64,11.26l-.85-.57a16.57,16.57,0,0,0,1-6c0-2.33-.45-4.78-2-6.37C63.35,95.47,64.55,94.84,65.4,94.84Zm10.86.06c-2.16,0-4.66,12.34-4.66,24.62a78.07,78.07,0,0,0,.46,8.93c4.09-9.5,5.52-23.09,5.52-28.78C77.57,96.72,77.17,94.9,76.26,94.9ZM88.6,92.68c-2,0-4.83,15.3-4.83,29.23,0,2.39.06,4.72.23,6.88,3-7.45,5.35-18.77,5.4-31.56C89.4,94.45,89.17,92.68,88.6,92.68Z"/><path class="cls-1" d="M103.27,92.51c0-.17.17-.23.34-.23a1.05,1.05,0,0,1,.4.11c1.48,1.48,3.64,1.82,3.64,4-.4,6-.91,16.49-1.42,25.65,1.71-4.44,4.27-7.34,6.6-7.34,3.81,0,5.57,4.78,5.57,10.12,0,9.55-5.63,15-10.24,15-3.24,0-6-2.73-6-8.64,0-.34.06-.68.06-1,.85-10.35,1.08-25.36,1.08-37.31Zm1.93,40.78c0,3.13,1.48,4.72,3.24,4.72,2.62,0,5.8-3.53,5.8-10.75,0-4-1.08-7.68-3.3-7.68-2.5,0-5.69,6.31-5.69,12.8C105.26,132.72,105.21,133,105.21,133.29Z"/><path class="cls-1" d="M133.19,131.07a10.22,10.22,0,0,0-.51-3.07c0-.06,0-.34.68-.34,2.1,0,2.56,2.33,2.56,4.32,0,4-3.13,8-7.34,8-5.86,0-8.3-5.18-8.3-10.86,0-6.88,3.58-14.44,9.1-14.44,2.56,0,4,1.88,4,4.49,0,3.53-2.62,8.3-8.59,11.72.34,4.72,2,6.54,3.92,6.54C130.91,137.44,133.19,134.77,133.19,131.07Zm-4-13.08c-2.5,0-4.38,5.46-4.49,10.52,2.27-1.54,5.35-6.65,5.35-9.44C130.06,118.56,129.83,118,129.21,118Z"/><path class="cls-1" d="M149,92.51c0-.17.17-.23.34-.23a1.05,1.05,0,0,1,.4.11c1.48,1.48,3.64,1.82,3.64,4-.4,6-.91,16.49-1.42,25.65,1.71-4.44,4.27-7.34,6.6-7.34,3.81,0,5.57,4.78,5.57,10.12,0,9.55-5.63,15-10.24,15-3.24,0-6-2.73-6-8.64,0-.34.06-.68.06-1,.85-10.35,1.08-25.36,1.08-37.31Zm1.93,40.78c0,3.13,1.48,4.72,3.24,4.72,2.62,0,5.8-3.53,5.8-10.75,0-4-1.08-7.68-3.3-7.68-2.5,0-5.69,6.31-5.69,12.8C151,132.72,150.93,133,150.93,133.29Z"/><path class="cls-1" d="M179.53,119.64c1,.28,2.45.74,2.45,1.42,0,1.65-.8,6.82-.8,10.86,0,2.9.4,5.18,1.82,5.18a4.16,4.16,0,0,0,3.36-2.5c.63-.17.74-.91.91-.91s.23.34.23.51c0,3-2.67,5.74-5.29,5.74-2.22,0-4.38-1.93-4.95-7.05-1.54,4-3.7,7.05-5.91,7.05-3.92,0-5.63-4.15-5.63-9,0-7.11,3.53-15.81,8.93-15.81C177.66,115.09,179.13,117,179.53,119.64Zm-1.93,1.71c-1-1.25-1.88-1.82-2.73-1.82-3.53,0-5.86,9.16-5.86,13.65,0,2.33.57,4,1.71,4C175.38,137.16,177.09,125.84,177.6,121.35Z"/><path class="cls-1" d="M196.25,114.46c2.28,0,4,1.76,4.27,5.63a5,5,0,0,1,.11.91,3.24,3.24,0,0,1-3.41,3.18c-1.19,0-1.65-.45-1.65-.74a.15.15,0,0,1,.17-.17c.46-.06,1.48-2.22,1.48-3.53,0-.46-.11-.8-.4-.91-3.07.23-6.37,7-6.37,12.34,0,4.32,2.39,6.6,4.61,6.6,2,0,4-1.88,4-5.63a13,13,0,0,0-.68-3.92c0-.06,0-.34.68-.34,1.65,0,2.9,2.5,2.9,5.23,0,4.89-3.13,7.34-6.6,7.34-4.15,0-8.76-3.53-8.76-10.46C186.58,122.82,190.79,114.46,196.25,114.46Z"/><path class="cls-1" d="M217,115.49c1.82,0,2.73,1.25,2.73,3,0,3.18-3,8.08-9.16,10.58,1.59,8.3,6.26,13.31,11.94,13.31a11.87,11.87,0,0,0,6.08-1.82s.34-.28.51-.28v.06a7.91,7.91,0,0,1-.62,1.19c-3.41,1.93-1.48,6.88-8,6.88-5.18,0-10.81-8.87-12.11-17.57-.11,0-.34.51-.34.57a21,21,0,0,0-.45,5.4,37.28,37.28,0,0,0,.23,4c0,.57-.11,1-.4,1a.75.75,0,0,1-.4-.17c-1-.74-3-1.76-3.53-2.27.06-2.5.51-9.84,1.36-18.25h-.11a.74.74,0,0,1-.46-.11c-.51-.23-.23-.57-.74-.8-.4,0-.57-.11-.57-.17s1.19-.28,2-.57c1.59-14.62,4.49-31.68,8.87-31.68,2.79,0,4,3,4,7.11,0,7.79-4.26,19.73-10.18,24.62-.23,1.76-.34,3.64-.51,5.52C210.58,118.56,214.11,115.49,217,115.49Zm-1.31,5.12c0-.57-.34-.91-1-.91-3,0-7.11,7.28-7.11,8.64C213,125.61,215.64,122.2,215.64,120.61Zm-1.25-25.7c-2.73,0-4.89,8.93-6.43,22.46,4.66-4.89,7.17-15.47,7.17-20.13C215.13,95.81,214.85,94.9,214.39,94.9Z"/><path class="cls-1" d="M240,125.33c0,5.52.45,11.66,2.28,11.66,1.48,0,3.13-10.81,4-15.64V116.8a1.48,1.48,0,0,1,1.19-.85c.85.11,3.53.57,3.53,2,0,1.19-.34,6.26-.34,10.86,0,4.15.29,7.91,1.37,7.91s4.09-6.31,4.09-14.56a34.46,34.46,0,0,0-1.31-9.33,12.76,12.76,0,0,1,3.87-1.19c1.19,0,1.71,1,1.71,3.87,0,9.55-5.86,24.28-9.21,24.28s-4.38-8.42-4.72-15.13c-1.14,5.35-1.82,16-5.4,16-4.32,0-5.74-9.21-5.74-16.61a33.5,33.5,0,0,1,.8-8.13s.23-.74.68-.74c1,0,3.53.8,3.53,2C240.21,118.16,240,121.57,240,125.33Z"/><path class="cls-1" d="M264.78,117.25a14.62,14.62,0,0,0,3.47-.4c.68,0,.68.46.68.46-1.48,8.25-2.27,11.54-2.27,17.23,0,1.93.51,2.62,1.25,2.62,1.25,0,3.07-2,3.7-3.53a.76.76,0,0,1,.51-.34c.17,0,.28.11.28.34v.11c-.62,3.24-3,6.2-5.74,6.2-3.18,0-4.15-4.15-4.15-8.93a65.61,65.61,0,0,1,1.59-13S264.32,117.25,264.78,117.25Zm7.05-12.74c0,2.16-1.65,4.89-3.64,4.89-1.82,0-2.62-1.37-2.62-2.9,0-2.1,1.48-4.61,3.75-4.61A2.33,2.33,0,0,1,271.83,104.51Z"/><path class="cls-1" d="M277,99.51a.34.34,0,0,1,.23.06c1.25.85,3.92.74,3.92,2,0,.74-.74,3.7-1.59,7.73,3.81-.45,7-1.14,7.91-1.14.68,0,1.65,0,1.65.46s-.68.4-.85.68a4.13,4.13,0,0,0-.51,1.08,61.21,61.21,0,0,1-9,3,105.68,105.68,0,0,0-2.33,19.45c0,4.44.57,8.3,2.16,10.81,0,0-.06.8-.8.8-3.53-1.71-4.61-8.13-4.61-15.58a124.28,124.28,0,0,1,1-14.5,20.41,20.41,0,0,1-3.64.28c-3,0-4.32-2-4.32-5.06,0-.51.17-1.36.51-1.36a.41.41,0,0,1,.34.23,18.79,18.79,0,0,0,7.17,1.14h.57c.46-3.24,1-6.08,1.59-9.72A1,1,0,0,1,277,99.51Z"/><path class="cls-1" d="M285.76,127.26c.11,0,.17-.06.23-.17.74-2,5-10.35,6.94-10.35a1.59,1.59,0,0,1,1,.51c1.14.06,2.22.28,2.22,1.48a88.76,88.76,0,0,0-1,12.34c0,2.84.28,6.14,1.88,6.14,1.88,0,3.53-2.73,4-4.27a.3.3,0,0,1,.28-.23c.46,0,.57.57.57.85a7.78,7.78,0,0,1-3.13,5.63,4.71,4.71,0,0,1-2.79,1c-5,0-5.29-7.9-5.29-11.26,0-2.67.17-5.23.28-6.82,0-.23-.06-1-.23-1-.34,0-3,5.12-3.53,6.37a25.53,25.53,0,0,0-1.93,9.5c0,2.1.06,3.81.06,3.81,0,.57-.11,1-.4,1a.76.76,0,0,1-.4-.17c-1-.74-3-1.76-3.53-2.27.11-2,.85-9.84,1.48-18.25h-.23a.74.74,0,0,1-.46-.11c-.51-.23-.23-.57-.74-.8-.4,0-.57-.11-.57-.17s1.25-.28,2.1-.57l.17-2c1-14,5.4-29.63,8.64-29.63,2.79,0,4,3,4,7.11,0,7.45-3.87,18.71-9.38,23.94-.28,3.41-.51,6.65-.51,8.25C285.59,127.2,285.7,127.26,285.76,127.26ZM292,94.9c-1.93,0-4.72,11-5.69,21.55,4.21-5.18,6.43-14.79,6.43-19.22C292.7,95.81,292.41,94.9,292,94.9Z"/><path class="cls-1" d="M312.88,130.9c0-11.2,5.69-16,10-16a4.55,4.55,0,0,1,4.72,4.89v.11a5.43,5.43,0,0,0-2.39-.57c-5.35,0-9,8.47-9,13.36,0,2.33.57,4.44,1.71,4.44,4.66,0,7.16-11.66,7.68-16.15,2.16.17,5.35.57,5.35,2.33a1.4,1.4,0,0,1-.06.46c-4.49,16.09-.17,41.57-16.38,41.57-4.32,0-8-4.38-8-8.42,0-.63.23-.91.57-.91a1,1,0,0,1,.74.57c0,2.1,1.88,5.8,4.78,5.8,12.23,0,11.71-23.89,12.17-29.52,0-.11,0-.17-.06-.23-1.54,4.09-3.81,7.28-6.14,7.28C314.59,139.94,312.88,135.79,312.88,130.9Z"/><path class="cls-1" d="M349.79,121.57c.23,0,.34.06.34.28a4.79,4.79,0,0,1-2.79,2.67,6.91,6.91,0,0,1,.06,1.08c0,6.43-3.41,13.65-8.36,13.65s-7.17-4.61-7.17-9.84c0-6.94,3.7-15.07,9.1-15.07,2.56,0,4.72,1.08,4.72,4.55a6.34,6.34,0,0,0-2.56-.57c-4.95,0-7.34,7-7.34,12.57,0,3.7,1,6.71,3.07,6.71,2.67,0,4.55-5.52,4.55-10.18,0-2.73-.63-5.12-2.1-6A31.47,31.47,0,0,1,344.5,120C346.61,121.57,347.4,121.57,349.79,121.57Z"/><path class="cls-1" d="M368,121.57c.23,0,.34.06.34.28a4.79,4.79,0,0,1-2.79,2.67,6.91,6.91,0,0,1,.06,1.08c0,6.43-3.41,13.65-8.36,13.65s-7.17-4.61-7.17-9.84c0-6.94,3.7-15.07,9.1-15.07,2.56,0,4.72,1.08,4.72,4.55a6.34,6.34,0,0,0-2.56-.57c-4.95,0-7.34,7-7.34,12.57,0,3.7,1,6.71,3.07,6.71,2.67,0,4.55-5.52,4.55-10.18,0-2.73-.63-5.12-2.1-6A31.48,31.48,0,0,1,362.7,120C364.81,121.57,365.6,121.57,368,121.57Z"/><path class="cls-1" d="M383.4,94.5a.34.34,0,0,1,.23.06c1.25.85,3.92.74,3.92,2,0,1.76-3.81,16.89-3.81,28.72,0,6.14,1,11.43,4.21,13.36a.43.43,0,0,1,.23.4.56.56,0,0,1-.46.57h-.06c-4-.8-6-4.49-6.94-9.55-1.48,5.23-4.21,9.9-7.11,9.9-4.26,0-6-3.87-6-8.47,0-6.82,3.87-15.3,9.33-15.3a4.5,4.5,0,0,1,3.36,1.25c.4-8.47,1.93-17.35,2.5-22.58A1,1,0,0,1,383.4,94.5ZM378.17,120c-2.5,0-6.88,4.89-6.88,13.19,0,2.9.8,4.15,1.88,4.15,2.5,0,6.71-6.65,6.71-14.9C379.88,120.78,379.19,120,378.17,120Z"/><path class="cls-1" d="M390.23,117.25a14.62,14.62,0,0,0,3.47-.4c.68,0,.68.46.68.46-1.48,8.25-2.27,11.54-2.27,17.23,0,1.93.51,2.62,1.25,2.62,1.25,0,3.07-2,3.7-3.53a.76.76,0,0,1,.51-.34c.17,0,.28.11.28.34v.11c-.62,3.24-3,6.2-5.74,6.2-3.19,0-4.15-4.15-4.15-8.93a65.61,65.61,0,0,1,1.59-13S389.77,117.25,390.23,117.25Zm7.05-12.74c0,2.16-1.65,4.89-3.64,4.89-1.82,0-2.62-1.37-2.62-2.9,0-2.1,1.48-4.61,3.75-4.61A2.33,2.33,0,0,1,397.28,104.51Z"/><path class="cls-1" d="M413.65,129a60.32,60.32,0,0,0,3.87-14.56c.11-1.25,2.62-2.33,3.47-2.33.17,0,.45.06.45.28a41.88,41.88,0,0,0-.85,8.13c0,4.09,3.53,12.85,3.53,17.52a5.14,5.14,0,0,1-5.12,5.35,4.1,4.1,0,0,1-4.21-4.49c0-1.65,1-3.07,1.31-3.07.06,0,.11.06.11.17v.23c0,2.27.91,3.36,2.22,3.36s1.88-1.36,1.88-3.3c0-4.49-2.56-12.11-2.56-13.48-.62,1.19-1.48,4-2.62,7.05-2,5.35-5.17,10.18-9.38,10.18-5.86,0-8.3-5.18-8.3-10.86,0-6.88,3.58-14.44,9.1-14.44,2.56,0,4,1.88,4,4.49,0,3.53-2.62,8.3-8.59,11.72.23,3,1.19,6.71,4.32,6.71C410,137.61,412.46,132,413.65,129Zm-7.28-11c-2.5,0-4.38,5.46-4.49,10.52,2.27-1.54,5.35-6.65,5.35-9.44C407.23,118.56,407,118,406.37,118Z"/><path class="cls-1" d="M427.07,146.82l-.46-.63a16.41,16.41,0,0,0,2.84-8.76c0-1.54-.68-2.22-.68-2.84,0-.85,2-2.16,3.64-2.16,1.14,0,2.1.63,2.1,2.5C434.52,138,431.91,143,427.07,146.82Z"/><path class="cls-1" d="M457.9,112.08c.17,0,.46.06.46.28a41.84,41.84,0,0,0-.85,8.13c0,4.09,3.36,10.35,3.36,15a4.83,4.83,0,0,1-4.78,5.17c-2.1,0-4.15-1.48-4.15-4.61,0-1.65.51-3.07.85-3.07.06,0,.11,0,.17.11.85,2,.85,4.15,2.22,4.15s1.65-1.19,1.65-2.9c0-3.81-2.16-10.24-2.16-11.6-1.36,2.62-3.92,12.74-7.51,17.29,0,0-1.25-.23-1.25-.68a.21.21,0,0,1,.06-.17c3.87-5.57,8.13-20.7,8.47-24.79C454.54,113.16,457,112.08,457.9,112.08Z"/><path class="cls-1" d="M480.47,121.57c.23,0,.34.06.34.28a4.79,4.79,0,0,1-2.79,2.67,6.91,6.91,0,0,1,.06,1.08c0,6.43-3.41,13.65-8.36,13.65s-7.17-4.61-7.17-9.84c0-6.94,3.7-15.07,9.1-15.07,2.56,0,4.72,1.08,4.72,4.55a6.34,6.34,0,0,0-2.56-.57c-4.95,0-7.34,7-7.34,12.57,0,3.7,1,6.71,3.07,6.71,2.67,0,4.55-5.52,4.55-10.18,0-2.73-.63-5.12-2.1-6a31.48,31.48,0,0,1,3.18-1.42C477.29,121.57,478.08,121.57,480.47,121.57Z"/><path class="cls-1" d="M504.13,139.94c0,.4-.4.57-.85.57-.62,0-1.48-.34-1.59-.68-.23-.57-1.08-.23-1.08-.85a1.76,1.76,0,0,1,.06-.51c.23-1.14.4-4.27.68-7.9.17-2.45.57-6.77.57-9.5,0-1.71-.4-2.33-1-2.33-1.19,0-2.45,2.79-4.72,4.38a18.57,18.57,0,0,1,.17,2.5c0,6.43-3.41,13.65-8.36,13.65s-7.16-4.61-7.16-9.84c0-6.94,3.7-15.07,9.1-15.07,4.38,0,4.72,3.07,4.72,4.15v.4a6.35,6.35,0,0,0-2.56-.57c-4.95,0-7.34,7-7.34,12.57,0,3.7,1,6.71,3.07,6.71,2.67,0,4.55-5.52,4.55-10.18,0-2.73-.62-5.12-2.1-6a31.42,31.42,0,0,1,3.19-1.42,3.45,3.45,0,0,0,1.42.34c2.84,0,5.8-4,8-4,2.56,0,3.13,2.73,3.13,5.86,0,2.62-.4,5.52-.45,7.39,1.82-4,3.92-10.63,7.22-13.76a.76.76,0,0,1,.45-.17c.63,0,2.62,1.31,2.62,2,0,.17,0,.23-.06.28-1.82,2-3.07,8.42-3.07,14,0,4.89,1,9.16,3.47,9.16.91,0,2-.57,3.36-1.88a.59.59,0,0,1,.23-.06.15.15,0,0,1,.17.17c0,3.07-2.45,4.55-5.12,4.55-4.72,0-5.74-7-5.74-12.51a39.91,39.91,0,0,1,.4-5.91C506.75,128.4,505.38,136.19,504.13,139.94Z"/><path class="cls-1" d="M544.05,118.39c.23-1.08,1-2,1.76-2,1,0,1.76-.63,2.22-.63.23,0,.34.17.4.74.11,1.88.11,4.21.11,6.43,0,2.67,0,5.23-.06,6.71,1.82-4,3.92-10.63,7.22-13.76a.76.76,0,0,1,.46-.17c.63,0,2.62,1.31,2.62,2a.51.51,0,0,1-.06.28c-1.42,3.18-2,8.25-2,11.66,0,3,.74,6,1.93,6,.68,0,1.54-1,2.45-3.47a.59.59,0,0,1,.23-.06.15.15,0,0,1,.17.17c0,2.33-1.54,5.8-3.81,5.8-4.95,0-5.29-9.72-5.29-12.57-2.73,3-4.09,10.75-5.35,14.5a.72.72,0,0,1-.74.57,4.54,4.54,0,0,1-2.79-1.54,1.76,1.76,0,0,1,.06-.51c.23-1.14.4-4.27.68-7.9.11-1.48.11-3.64.11-5.8v-3.92c-1.36,4.95-3.35,19.28-9,19.28-5.86,0-8.25-5.12-8.25-10.81,0-6.94,3.64-14.62,9.16-14.62,2.56,0,4,1.88,4,4.49,0,3.53-2.62,8.3-8.59,11.72.34,4.72,2,6.54,3.92,6.54C539.79,137.44,543,123.56,544.05,118.39Zm-7.9-.4c-2.5,0-4.38,5.46-4.49,10.52,2.27-1.54,5.35-6.65,5.35-9.44C537,118.56,536.77,118,536.15,118Z"/><path class="cls-1" d="M582.67,134.31c0,1.93.46,2.67,1.08,2.67,1.65,0,4.89-5.23,6.43-9.5.34-4.89,1.54-9.78,2.62-11.32a1.39,1.39,0,0,1,.91-.45c.74,0,2.16.74,2.16,1.25a2.52,2.52,0,0,1-.11.57,64.33,64.33,0,0,0-1.37,12.68c0,3.64.68,6.43,2.1,6.43.74,0,1.65-.74,2.79-2.45.17-.28.63-1,.8-1s.06.06.06.17a2,2,0,0,1-.06.51c0,.06-.06.06-.06.11v.11c0,.17.11.17.11.51,0,.57-2.16,4.95-5.12,4.95-3.64,0-4.83-4.27-4.89-9.21-2.5,5.63-5.74,9.78-8.08,9.78-1.88,0-3.18-2.56-3.18-9a60.7,60.7,0,0,1,1.25-11.49,12.54,12.54,0,0,1-4.66,1.88,13.7,13.7,0,0,1,.57,4.09c0,6.43-3.41,13.65-8.36,13.65-3.58,0-6.94-3.13-6.94-9.61s3.47-13.82,8.59-14.73c.23,0,.46.57.63,1.19a6.31,6.31,0,0,1,4.49,3.07,11.29,11.29,0,0,0,6.94-2.56,14.62,14.62,0,0,0,3.47-.4c.68,0,.68.46.68.46C585.51,117.31,582.67,124.81,582.67,134.31Zm-15.18,3.3c3,0,5.4-7.68,5.4-12.85,0-2.22-.46-4-1.54-4.44a7.94,7.94,0,0,1-2.33-1.25c-2.5,1.76-4.49,8.25-4.49,13C564.52,135.22,565.38,137.61,567.48,137.61Z"/><path class="cls-1" d="M600.29,130.9c0-11.2,5.69-16,10-16a4.55,4.55,0,0,1,4.72,4.89v.11a5.43,5.43,0,0,0-2.39-.57c-5.35,0-9,8.47-9,13.36,0,2.33.57,4.44,1.71,4.44,4.66,0,7.16-11.66,7.68-16.15,2.16.17,5.35.57,5.35,2.33a1.4,1.4,0,0,1-.06.46c-4.49,16.09-.17,41.57-16.38,41.57-4.32,0-8-4.38-8-8.42,0-.63.23-.91.57-.91a1,1,0,0,1,.74.57c0,2.1,1.88,5.8,4.78,5.8,12.23,0,11.71-23.89,12.17-29.52,0-.11,0-.17-.06-.23-1.54,4.09-3.81,7.28-6.14,7.28C602,139.94,600.29,135.79,600.29,130.9Z"/><path class="cls-1" d="M624.23,127.26c.11,0,.17-.06.23-.17.74-2,5-10.35,6.94-10.35a1.59,1.59,0,0,1,1,.51c1.14.06,2.22.28,2.22,1.48a88.76,88.76,0,0,0-1,12.34c0,2.84.28,6.14,1.88,6.14,1.88,0,3.53-2.73,4-4.27a.3.3,0,0,1,.28-.23c.46,0,.57.57.57.85a7.78,7.78,0,0,1-3.13,5.63,4.71,4.71,0,0,1-2.79,1c-5,0-5.29-7.9-5.29-11.26,0-2.67.17-5.23.28-6.82,0-.23-.06-1-.23-1-.34,0-3,5.12-3.53,6.37a25.54,25.54,0,0,0-1.93,9.5c0,2.1.06,3.81.06,3.81,0,.57-.11,1-.4,1a.76.76,0,0,1-.4-.17c-1-.74-3-1.76-3.53-2.27.11-2,.85-9.84,1.48-18.25h-.23a.74.74,0,0,1-.46-.11c-.51-.23-.23-.57-.74-.8-.4,0-.57-.11-.57-.17s1.25-.28,2.1-.57l.17-2c1-14,5.4-29.63,8.64-29.63,2.79,0,4,3,4,7.11,0,7.45-3.87,18.71-9.38,23.94-.29,3.41-.51,6.65-.51,8.25C624.06,127.2,624.18,127.26,624.23,127.26Zm6.2-32.36c-1.93,0-4.72,11-5.69,21.55,4.21-5.18,6.43-14.79,6.43-19.22C631.17,95.81,630.89,94.9,630.43,94.9Z"/><path class="cls-1" d="M650.56,135.22a3.38,3.38,0,0,1-3.3,3.64c-2.62,0-3.64-1.54-3.64-3.24,0-2,1.42-4.09,3.58-4.09A3.43,3.43,0,0,1,650.56,135.22ZM647.38,128a1.17,1.17,0,0,1-1.31-1.31c0-8.19.17-31.34.17-35.71,0-.06.4-.06.46-.06.63,0,5.46,4.66,5.46,5.12,0,2.1-3.18,25.82-3.18,31.56A3.88,3.88,0,0,1,647.38,128Z"/></g></g></svg>