<?xml version="1.0" encoding="iso-8859-1"?>
<!-- Generator: Adobe Illustrator 19.0.0, SVG Export Plug-In . SVG Version: 6.00 Build 0)  -->
<svg xmlns="http://www.w3.org/2000/svg" xmlns:xlink="http://www.w3.org/1999/xlink" version="1.1" id="Capa_1" x="0px" y="0px" viewBox="0 0 512 512" style="enable-background:new 0 0 512 512;" xml:space="preserve" width="512px" height="512px">
<g>
	<g>
		<path d="M399.524,0c-57.891,0-105,47.109-105,105v90c0,28.96,11.733,55.898,32.593,75.674c-1.714,4.658-2.593,9.478-2.593,14.326    c0,24.814,20.186,45,45,45c19.834,0,36.724-12.905,42.686-30.762c51.943-6.284,92.314-50.64,92.314-104.238v-90    C504.524,47.109,457.415,0,399.524,0z M399.524,240c-8.284,0-15-6.716-15-15s6.716-15,15-15s15,6.716,15,15    S407.808,240,399.524,240z M426.199,141.24c-7.31,5.391-11.675,14.004-11.675,23.057c0,8.291-6.709,15.352-15,15.352    c-8.291,0-15-6.357-15-14.648v-0.703c0-18.56,8.921-36.196,23.877-47.212c3.882-2.856,6.123-7.266,6.123-12.085    c0-8.276-6.724-15-15-15s-15,6.724-15,15c0,8.291-6.709,15-15,15c-8.291,0-15-6.709-15-15c0-24.814,20.186-45,45-45    c24.814,0,45,20.186,45,45C444.524,119.238,437.669,132.788,426.199,141.24z" fill="#5887ff"/>
	</g>
</g>
<g>
	<g>
		<circle cx="309.52" cy="345" r="15" fill="#5887ff"/>
	</g>
</g>
<g>
	<g>
		<path d="M98.947,377.82C46.775,400.981,10.711,452.115,7.476,512h137.048c0-40.38,0-86.614,0-88.541    C144.524,423.397,98.947,377.82,98.947,377.82z" fill="#5887ff"/>
	</g>
</g>
<g>
	<g>
		<path d="M159.524,364.307c-8.536,0-16.76,1.194-24.928,2.521l24.928,24.928l24.928-24.928    C176.284,365.501,168.061,364.307,159.524,364.307z" fill="#5887ff"/>
	</g>
</g>
<g>
	<g>
		<path d="M75.035,212h24.489c24.814,0,45-20.186,45-45v-13.488C112.089,158.983,85.806,181.703,75.035,212z" fill="#5887ff"/>
	</g>
</g>
<g>
	<g>
		<path d="M174.524,153.512V167c0,24.814,20.186,45,45,45h24.489C233.243,181.703,206.96,158.984,174.524,153.512z" fill="#5887ff"/>
	</g>
</g>
<g>
	<g>
		<path d="M219.524,242c-24.62,0-46.318-12.085-60-30.463c-13.682,18.378-35.38,30.463-60,30.463h-30c0,49.706,40.294,90,90,90    c49.706,0,90-40.294,90-90H219.524z" fill="#5887ff"/>
	</g>
</g>
<g>
	<g>
		<path d="M220.101,377.82l-45.577,45.577V512h135h2.41C308.722,452.079,272.299,400.994,220.101,377.82z" fill="#5887ff"/>
	</g>
</g>
<g>
</g>
<g>
</g>
<g>
</g>
<g>
</g>
<g>
</g>
<g>
</g>
<g>
</g>
<g>
</g>
<g>
</g>
<g>
</g>
<g>
</g>
<g>
</g>
<g>
</g>
<g>
</g>
<g>
</g>
</svg>
