<?xml version="1.0" encoding="iso-8859-1"?>
<!-- Generator: Adobe Illustrator 16.0.0, SVG Export Plug-In . SVG Version: 6.00 Build 0)  -->
<!DOCTYPE svg PUBLIC "-//W3C//DTD SVG 1.1//EN" "http://www.w3.org/Graphics/SVG/1.1/DTD/svg11.dtd">
<svg version="1.1" id="Capa_1" xmlns="http://www.w3.org/2000/svg" xmlns:xlink="http://www.w3.org/1999/xlink" x="0px" y="0px"
	 width="346.194px" height="346.194px" viewBox="0 0 346.194 346.194" style="enable-background:new 0 0 346.194 346.194;"
	 xml:space="preserve">
<g>
	<g>
		<path d="M145.001,231.989c0.375,2.569,0.774,5.025,1.189,7.47c1.991-1.436,4.02-2.931,6.068-4.468
			c-1.063-0.937-2.111-1.861-3.18-2.816C147.721,232.109,146.361,232.079,145.001,231.989z"/>
		<path d="M152.351,267.357c7.089,24.992,15.796,38.13,20.747,38.13c4.941,0,13.654-13.138,20.752-38.142
			c-6.785-4.498-13.727-9.561-20.746-15.007C166.081,257.804,159.127,262.859,152.351,267.357z"/>
		<path d="M201.176,116.859c-0.372-2.57-0.769-5.018-1.177-7.464c-2.006,1.432-4.018,2.921-6.065,4.464
			c1.045,0.94,2.102,1.85,3.171,2.805C198.462,116.73,199.812,116.763,201.176,116.859z"/>
		<path d="M152.264,113.859c-2.054-1.543-4.077-3.026-6.08-4.47c-0.402,2.435-0.808,4.9-1.177,7.47
			c1.36-0.097,2.732-0.129,4.095-0.195C150.156,115.715,151.201,114.799,152.264,113.859z"/>
		<path d="M80.401,81.743c-3.48,3.495-0.363,18.939,12.304,41.646c8.122-1.621,16.576-2.987,25.277-4.062
			c1.09-8.74,2.462-17.243,4.083-25.397c-15.606-8.743-28.469-13.231-36.806-13.231C82.455,80.698,80.894,81.263,80.401,81.743z"/>
		<path d="M95.182,174.427c-5.398-6.917-10.416-13.859-15.015-20.758c-24.995,7.095-38.143,15.808-38.143,20.747
			c0,4.93,13.147,13.655,38.167,20.747C84.779,188.286,89.796,181.345,95.182,174.427z"/>
		<path d="M92.723,225.456c-12.685,22.698-15.79,38.154-12.31,41.637c0.48,0.48,2.042,1.045,4.87,1.045
			c8.326,0,21.197-4.491,36.782-13.223c-1.621-8.16-2.993-16.657-4.083-25.4C109.291,228.434,100.848,227.089,92.723,225.456z"/>
		<path d="M108.119,147.508c1.415,2.002,2.861,4.008,4.405,6.073c0.922-1.032,1.879-2.047,2.81-3.068
			c0.066-1.396,0.105-2.798,0.184-4.182C112.965,146.694,110.536,147.105,108.119,147.508z"/>
		<path d="M112.524,195.275c-1.537,2.06-2.984,4.065-4.405,6.065c2.423,0.396,4.846,0.798,7.398,1.165
			c-0.087-1.394-0.123-2.774-0.184-4.174C114.403,197.317,113.452,196.309,112.524,195.275z"/>
		<path d="M193.85,81.491c-7.098-25.001-15.811-38.13-20.752-38.13c-4.951,0-13.658,13.129-20.753,38.13
			c6.789,4.5,13.73,9.557,20.753,15.03C180.117,91.047,187.053,85.997,193.85,81.491z"/>
		<path d="M266.016,153.668c-4.6,6.899-9.613,13.841-15,20.758c5.393,6.918,10.4,13.848,14.988,20.735
			c25.016-7.092,38.166-15.817,38.166-20.747C304.158,169.476,291.025,160.763,266.016,153.668z"/>
		<path d="M228.191,229.509c-1.087,8.749-2.456,17.24-4.083,25.406c15.606,8.731,28.475,13.223,36.803,13.223
			c2.822,0,4.372-0.564,4.864-1.045c3.477-3.482,0.36-18.938-12.31-41.637C245.341,227.077,236.898,228.422,228.191,229.509z"/>
		<path d="M230.846,198.356c-0.066,1.387-0.108,2.762-0.187,4.149c2.546-0.367,4.99-0.77,7.41-1.172
			c-1.43-1.987-2.864-3.992-4.407-6.053C232.737,196.32,231.782,197.329,230.846,198.356z"/>
		<path d="M173.104,0C77.66,0,0.003,77.647,0.003,173.094c0,95.435,77.657,173.101,173.101,173.101
			c95.446,0,173.088-77.666,173.088-173.101C346.191,77.647,268.55,0,173.104,0z M280.079,218.725
			c14.436,28.006,18.614,52.854,4.396,67.079c-4.012,4.012-11.355,8.791-23.563,8.791c-11.877,0-26.835-4.743-43.469-13.294
			c-9.589,30.071-24.217,50.632-44.345,50.632c-20.134,0-34.774-20.561-44.354-50.626c-16.63,8.545-31.585,13.282-43.454,13.282
			c-12.21,0-19.566-4.78-23.569-8.797c-14.222-14.22-10.052-39.067,4.405-67.05c-30.021-9.596-50.54-24.211-50.545-44.327
			c0.006-20.107,20.524-34.726,50.524-44.31c-14.448-28.003-18.618-52.845-4.396-67.067c4.014-4.008,11.358-8.785,23.557-8.785
			c11.886,0,26.838,4.741,43.478,13.286c9.58-30.066,24.214-50.629,44.354-50.629c20.14,0,34.756,20.569,44.345,50.629
			c16.646-8.554,31.604-13.286,43.481-13.286c12.213,0,19.551,4.771,23.562,8.785c14.213,14.223,10.046,39.07-4.407,67.067
			c30.012,9.584,50.524,24.208,50.536,44.315C330.604,194.531,310.091,209.146,280.079,218.725z"/>
		<path d="M193.928,234.997c2.048,1.531,4.065,3.021,6.065,4.45c0.402-2.433,0.811-4.889,1.183-7.458
			c-1.363,0.084-2.714,0.12-4.071,0.18C196.048,233.136,194.991,234.055,193.928,234.997z"/>
		<path d="M195.693,151.816c-3.164-3.167-6.299-6.191-9.434-9.142c-4.287-0.117-8.638-0.216-13.168-0.216
			c-4.516,0-8.87,0.105-13.184,0.216c-3.12,2.951-6.254,5.98-9.416,9.142c-3.191,3.198-6.197,6.341-9.148,9.463
			c-0.123,4.285-0.216,8.626-0.216,13.142c0,4.51,0.099,8.857,0.216,13.156c2.952,3.123,5.945,6.257,9.143,9.446
			c3.155,3.164,6.29,6.19,9.421,9.133c4.291,0.126,8.656,0.229,13.184,0.229c4.524,0,8.881-0.103,13.192-0.229
			c3.134-2.948,6.269-5.98,9.415-9.133c3.194-3.189,6.179-6.312,9.127-9.439c0.127-4.294,0.217-8.642,0.217-13.163
			c0-4.51-0.096-8.863-0.217-13.159C201.878,158.151,198.894,155.014,195.693,151.816z"/>
		<path d="M230.659,146.337c0.084,1.384,0.126,2.774,0.187,4.164c0.931,1.039,1.892,2.048,2.816,3.086
			c1.543-2.066,2.984-4.071,4.419-6.074C235.655,147.105,233.205,146.694,230.659,146.337z"/>
		<path d="M253.478,123.389c12.664-22.707,15.78-38.151,12.298-41.646c-0.469-0.486-2.042-1.045-4.852-1.045
			c-8.341,0-21.209,4.488-36.815,13.231c1.627,8.161,2.996,16.657,4.083,25.397C236.898,120.402,245.354,121.759,253.478,123.389z"
			/>
	</g>
</g>
<g>
</g>
<g>
</g>
<g>
</g>
<g>
</g>
<g>
</g>
<g>
</g>
<g>
</g>
<g>
</g>
<g>
</g>
<g>
</g>
<g>
</g>
<g>
</g>
<g>
</g>
<g>
</g>
<g>
</g>
</svg>
