<svg xmlns="http://www.w3.org/2000/svg" viewBox="0 0 94.58 114.41"><defs><style>.cls-1{fill:#3e3e40;}.cls-2{fill:#d2ce00;}.cls-3{fill:#cad223;}</style></defs><title>Asset 1</title><g id="Layer_2" data-name="Layer 2"><g id="Layer_1-2" data-name="Layer 1"><rect class="cls-1" width="94.58" height="114.41"/><path class="cls-2" d="M83.83,31.05h2.07a1,1,0,0,1,1.15,1,.91.91,0,0,1-.53.89,1,1,0,0,1,.52.88,2.08,2.08,0,0,0,.12.76H86.07A2.64,2.64,0,0,1,86,34c0-.34-.06-.69-.49-.69h-.58v1.23H83.83Zm1.09,1.54h.57c.21,0,.48,0,.48-.35s-.12-.35-.54-.35h-.51Z"/><path class="cls-2" d="M85.44,29.37a3.48,3.48,0,1,0,3.48,3.48A3.48,3.48,0,0,0,85.44,29.37Zm0,6.16a2.68,2.68,0,1,1,2.68-2.68A2.68,2.68,0,0,1,85.44,35.53Z"/><path class="cls-3" d="M32.22,69.64a21,21,0,0,1-8.16-1.57,22.49,22.49,0,0,1-6.86-4.5l.87-.87A21.33,21.33,0,0,0,24.57,67a19.63,19.63,0,0,0,7.75,1.52,16.11,16.11,0,0,0,4.83-.68A11.37,11.37,0,0,0,40.83,66a8.19,8.19,0,0,0,2.33-2.85A7.93,7.93,0,0,0,44,59.61V59.5a7.81,7.81,0,0,0-.6-3.12,6.28,6.28,0,0,0-2-2.47A13.65,13.65,0,0,0,37.56,52a50.28,50.28,0,0,0-6-1.6,42.09,42.09,0,0,1-6-1.6,14.82,14.82,0,0,1-4-2.09A7.27,7.27,0,0,1,19.31,44a8.46,8.46,0,0,1-.71-3.55v-.11a8,8,0,0,1,.92-3.77,9.73,9.73,0,0,1,2.58-3.09A12.61,12.61,0,0,1,26,31.37a15.45,15.45,0,0,1,5-.76,20.82,20.82,0,0,1,7,1.17,21.16,21.16,0,0,1,5.88,3.17l-.76,1a22.92,22.92,0,0,0-5.64-3.06,18.59,18.59,0,0,0-6.61-1.17,13.78,13.78,0,0,0-4.53.71,11.4,11.4,0,0,0-3.5,1.9A8.48,8.48,0,0,0,20.59,37a7,7,0,0,0-.78,3.22v.11a7.59,7.59,0,0,0,.6,3.09,6.08,6.08,0,0,0,2,2.41,14.93,14.93,0,0,0,3.77,1.9,41.61,41.61,0,0,0,5.85,1.54A42,42,0,0,1,38.26,51a15.17,15.17,0,0,1,4.06,2.17A7,7,0,0,1,44.52,56a8.91,8.91,0,0,1,.65,3.5v.11a8.93,8.93,0,0,1-.9,4,9.28,9.28,0,0,1-2.57,3.2,12.74,12.74,0,0,1-4.09,2.14A17.35,17.35,0,0,1,32.22,69.64Z"/><path class="cls-3" d="M53.85,29.52H55V59.61L73.85,42h1.52L62.47,54,76.23,69.1H74.82L61.76,54.68,55,60.91V69.1H53.85Z"/><path class="cls-3" d="M18.43,73.74h8L39.23,88.57V73.74h8.45v31H40.14L26.88,90v14.67H18.43Z"/><path class="cls-3" d="M52.68,72.41h8.45V88.79l6.51-8h9.52l-8.32,9.6,8.54,14.34H68.13l-4.83-8.14L61.14,99.1v5.62H52.68Z"/></g></g></svg>